<mxfile host="app.diagrams.net" modified="2023-01-12T06:41:00.647Z" agent="5.0 (Macintosh; Intel Mac OS X 10_15_7) AppleWebKit/537.36 (KHTML, like Gecko) Chrome/108.0.0.0 Safari/537.36" version="20.6.0" etag="buPxzNb_w6aIYMIntd06" type="github">
  <diagram id="SHUaUBA49FF7KSdsrrJE" name="第 1 页">
    <mxGraphModel dx="815" dy="542" grid="1" gridSize="10" guides="1" tooltips="1" connect="1" arrows="1" fold="1" page="1" pageScale="1" pageWidth="827" pageHeight="1169" math="0" shadow="0">
      <root>
        <mxCell id="0" />
        <mxCell id="1" parent="0" />
        <mxCell id="aRGuojGqZO9leG5eTvU_-4" value="" style="edgeStyle=orthogonalEdgeStyle;rounded=0;orthogonalLoop=1;jettySize=auto;html=1;" edge="1" parent="1" source="aRGuojGqZO9leG5eTvU_-2">
          <mxGeometry relative="1" as="geometry">
            <mxPoint x="380" y="160" as="targetPoint" />
          </mxGeometry>
        </mxCell>
        <mxCell id="aRGuojGqZO9leG5eTvU_-2" value="用户提交补款申请" style="rounded=1;whiteSpace=wrap;html=1;" vertex="1" parent="1">
          <mxGeometry x="320" y="40" width="120" height="60" as="geometry" />
        </mxCell>
        <mxCell id="aRGuojGqZO9leG5eTvU_-7" value="" style="edgeStyle=orthogonalEdgeStyle;rounded=0;orthogonalLoop=1;jettySize=auto;html=1;" edge="1" parent="1" source="aRGuojGqZO9leG5eTvU_-5" target="aRGuojGqZO9leG5eTvU_-6">
          <mxGeometry relative="1" as="geometry" />
        </mxCell>
        <mxCell id="aRGuojGqZO9leG5eTvU_-5" value="生成汇款单，回写付款凭证号" style="rounded=0;whiteSpace=wrap;html=1;" vertex="1" parent="1">
          <mxGeometry x="320" y="160" width="120" height="60" as="geometry" />
        </mxCell>
        <mxCell id="aRGuojGqZO9leG5eTvU_-6" value="执行汇款单正向流程" style="whiteSpace=wrap;html=1;rounded=0;" vertex="1" parent="1">
          <mxGeometry x="320" y="300" width="120" height="60" as="geometry" />
        </mxCell>
      </root>
    </mxGraphModel>
  </diagram>
</mxfile>
